<mxfile host="app.diagrams.net" modified="2020-07-16T03:24:28.374Z" agent="5.0 (Windows NT 10.0; Win64; x64) AppleWebKit/537.36 (KHTML, like Gecko) Chrome/83.0.4103.116 Safari/537.36" etag="knB2_hnMNTC6NgLdWvZq" version="13.4.4" type="github">
  <diagram id="WtcCqiZAIry3gZozMZns" name="Page-1">
    <mxGraphModel dx="1902" dy="976" grid="1" gridSize="10" guides="1" tooltips="1" connect="1" arrows="1" fold="1" page="1" pageScale="1" pageWidth="827" pageHeight="1169" math="0" shadow="0">
      <root>
        <mxCell id="0" />
        <mxCell id="1" parent="0" />
        <mxCell id="DU9e7dJnHGMR_0h4N2ql-3" style="edgeStyle=orthogonalEdgeStyle;rounded=0;orthogonalLoop=1;jettySize=auto;html=1;" edge="1" parent="1" source="DU9e7dJnHGMR_0h4N2ql-1" target="DU9e7dJnHGMR_0h4N2ql-2">
          <mxGeometry relative="1" as="geometry" />
        </mxCell>
        <mxCell id="DU9e7dJnHGMR_0h4N2ql-1" value="" style="strokeWidth=2;html=1;shape=mxgraph.flowchart.start_2;whiteSpace=wrap;labelBackgroundColor=#000000;" vertex="1" parent="1">
          <mxGeometry x="30" y="20" width="50" height="50" as="geometry" />
        </mxCell>
        <mxCell id="DU9e7dJnHGMR_0h4N2ql-6" style="edgeStyle=orthogonalEdgeStyle;rounded=0;orthogonalLoop=1;jettySize=auto;html=1;" edge="1" parent="1" source="DU9e7dJnHGMR_0h4N2ql-2" target="DU9e7dJnHGMR_0h4N2ql-5">
          <mxGeometry relative="1" as="geometry" />
        </mxCell>
        <mxCell id="DU9e7dJnHGMR_0h4N2ql-2" value="&lt;span&gt;get all effective discount info at 00:00am&lt;br&gt;&lt;/span&gt;" style="rounded=0;whiteSpace=wrap;html=1;labelBackgroundColor=none;" vertex="1" parent="1">
          <mxGeometry x="140" y="25" width="115" height="40" as="geometry" />
        </mxCell>
        <mxCell id="DU9e7dJnHGMR_0h4N2ql-19" style="edgeStyle=orthogonalEdgeStyle;rounded=0;orthogonalLoop=1;jettySize=auto;html=1;" edge="1" parent="1" source="DU9e7dJnHGMR_0h4N2ql-4" target="DU9e7dJnHGMR_0h4N2ql-18">
          <mxGeometry relative="1" as="geometry" />
        </mxCell>
        <mxCell id="DU9e7dJnHGMR_0h4N2ql-22" style="edgeStyle=orthogonalEdgeStyle;rounded=0;orthogonalLoop=1;jettySize=auto;html=1;" edge="1" parent="1" source="DU9e7dJnHGMR_0h4N2ql-4">
          <mxGeometry relative="1" as="geometry">
            <mxPoint x="200" y="260" as="targetPoint" />
            <Array as="points">
              <mxPoint x="620" y="425" />
              <mxPoint x="620" y="260" />
              <mxPoint x="200" y="260" />
            </Array>
          </mxGeometry>
        </mxCell>
        <mxCell id="DU9e7dJnHGMR_0h4N2ql-4" value="disc.eff_dte &amp;lt; sysdate?" style="rhombus;whiteSpace=wrap;html=1;labelBackgroundColor=none;" vertex="1" parent="1">
          <mxGeometry x="371.25" y="400" width="197.5" height="50" as="geometry" />
        </mxCell>
        <mxCell id="DU9e7dJnHGMR_0h4N2ql-16" style="edgeStyle=orthogonalEdgeStyle;rounded=0;orthogonalLoop=1;jettySize=auto;html=1;entryX=0.5;entryY=0;entryDx=0;entryDy=0;" edge="1" parent="1" source="DU9e7dJnHGMR_0h4N2ql-5" target="DU9e7dJnHGMR_0h4N2ql-7">
          <mxGeometry relative="1" as="geometry" />
        </mxCell>
        <mxCell id="DU9e7dJnHGMR_0h4N2ql-5" value="int i = 0" style="rounded=0;whiteSpace=wrap;html=1;labelBackgroundColor=none;" vertex="1" parent="1">
          <mxGeometry x="138.75" y="140" width="117.5" height="50" as="geometry" />
        </mxCell>
        <mxCell id="DU9e7dJnHGMR_0h4N2ql-9" style="edgeStyle=orthogonalEdgeStyle;rounded=0;orthogonalLoop=1;jettySize=auto;html=1;entryX=0.5;entryY=0;entryDx=0;entryDy=0;entryPerimeter=0;" edge="1" parent="1" source="DU9e7dJnHGMR_0h4N2ql-7" target="DU9e7dJnHGMR_0h4N2ql-8">
          <mxGeometry relative="1" as="geometry" />
        </mxCell>
        <mxCell id="DU9e7dJnHGMR_0h4N2ql-11" style="edgeStyle=orthogonalEdgeStyle;rounded=0;orthogonalLoop=1;jettySize=auto;html=1;entryX=0;entryY=0.5;entryDx=0;entryDy=0;" edge="1" parent="1" source="DU9e7dJnHGMR_0h4N2ql-7" target="DU9e7dJnHGMR_0h4N2ql-13">
          <mxGeometry relative="1" as="geometry" />
        </mxCell>
        <mxCell id="DU9e7dJnHGMR_0h4N2ql-7" value="i &amp;lt; disc_list.size?" style="rhombus;whiteSpace=wrap;html=1;labelBackgroundColor=none;" vertex="1" parent="1">
          <mxGeometry x="98.75" y="350" width="197.5" height="50" as="geometry" />
        </mxCell>
        <mxCell id="DU9e7dJnHGMR_0h4N2ql-8" value="" style="verticalLabelPosition=bottom;verticalAlign=top;html=1;shape=mxgraph.flowchart.or;labelBackgroundColor=none;" vertex="1" parent="1">
          <mxGeometry x="172.5" y="480" width="50" height="50" as="geometry" />
        </mxCell>
        <mxCell id="DU9e7dJnHGMR_0h4N2ql-10" value="no" style="text;html=1;strokeColor=none;fillColor=none;align=center;verticalAlign=middle;whiteSpace=wrap;rounded=0;labelBackgroundColor=none;" vertex="1" parent="1">
          <mxGeometry x="132.5" y="415" width="40" height="20" as="geometry" />
        </mxCell>
        <mxCell id="DU9e7dJnHGMR_0h4N2ql-12" value="yes" style="text;html=1;strokeColor=none;fillColor=none;align=center;verticalAlign=middle;whiteSpace=wrap;rounded=0;labelBackgroundColor=none;" vertex="1" parent="1">
          <mxGeometry x="330" y="280" width="40" height="20" as="geometry" />
        </mxCell>
        <mxCell id="DU9e7dJnHGMR_0h4N2ql-14" style="edgeStyle=orthogonalEdgeStyle;rounded=0;orthogonalLoop=1;jettySize=auto;html=1;entryX=0.5;entryY=0;entryDx=0;entryDy=0;" edge="1" parent="1" source="DU9e7dJnHGMR_0h4N2ql-13" target="DU9e7dJnHGMR_0h4N2ql-4">
          <mxGeometry relative="1" as="geometry" />
        </mxCell>
        <mxCell id="DU9e7dJnHGMR_0h4N2ql-13" value="get disc info" style="rounded=0;whiteSpace=wrap;html=1;labelBackgroundColor=none;" vertex="1" parent="1">
          <mxGeometry x="410" y="285" width="120" height="50" as="geometry" />
        </mxCell>
        <mxCell id="DU9e7dJnHGMR_0h4N2ql-24" style="edgeStyle=orthogonalEdgeStyle;rounded=0;orthogonalLoop=1;jettySize=auto;html=1;" edge="1" parent="1" source="DU9e7dJnHGMR_0h4N2ql-18">
          <mxGeometry relative="1" as="geometry">
            <mxPoint x="200" y="260" as="targetPoint" />
            <Array as="points">
              <mxPoint x="690" y="525" />
              <mxPoint x="690" y="260" />
            </Array>
          </mxGeometry>
        </mxCell>
        <mxCell id="DU9e7dJnHGMR_0h4N2ql-18" value="update disc.stat_cde = D" style="rounded=0;whiteSpace=wrap;html=1;labelBackgroundColor=none;" vertex="1" parent="1">
          <mxGeometry x="410" y="500" width="120" height="50" as="geometry" />
        </mxCell>
        <mxCell id="DU9e7dJnHGMR_0h4N2ql-21" value="yes" style="text;html=1;strokeColor=none;fillColor=none;align=center;verticalAlign=middle;whiteSpace=wrap;rounded=0;labelBackgroundColor=none;" vertex="1" parent="1">
          <mxGeometry x="410" y="460" width="40" height="20" as="geometry" />
        </mxCell>
        <mxCell id="DU9e7dJnHGMR_0h4N2ql-23" value="no" style="text;html=1;strokeColor=none;fillColor=none;align=center;verticalAlign=middle;whiteSpace=wrap;rounded=0;labelBackgroundColor=none;" vertex="1" parent="1">
          <mxGeometry x="568.75" y="400" width="40" height="20" as="geometry" />
        </mxCell>
        <mxCell id="2" value="next" style="text;html=1;align=center;verticalAlign=middle;resizable=0;points=[];autosize=1;" vertex="1" parent="1">
          <mxGeometry x="600" y="500" width="40" height="20" as="geometry" />
        </mxCell>
      </root>
    </mxGraphModel>
  </diagram>
</mxfile>
